<svg width="20" height="20" viewBox="0 0 20 20" fill="none" xmlns="http://www.w3.org/2000/svg">
<path d="M11.5471 8.26218L13.1237 6.68662C12.4756 6.10738 11.6718 5.73094 10.8118 5.60388C9.95187 5.47683 9.07354 5.60475 8.28556 5.9718C7.49757 6.33885 6.83452 6.92892 6.37849 7.66898C5.92245 8.40903 5.69345 9.26657 5.71982 10.1354C5.7462 11.0043 6.02679 11.8464 6.52688 12.5574C7.02696 13.2685 7.72458 13.8172 8.53338 14.1358C9.34218 14.4544 10.2266 14.5288 11.0773 14.3498C11.928 14.1708 12.7075 13.7463 13.3193 13.1288L11.8604 11.67H11.6271C11.3094 11.9489 10.9188 12.1314 10.501 12.1961C10.0832 12.2607 9.65568 12.2049 9.26853 12.0352C8.88138 11.8654 8.55068 11.5887 8.31525 11.2376C8.07982 10.8865 7.94942 10.4755 7.93936 10.0529C7.9293 9.63026 8.04 9.21353 8.25846 8.85162C8.47692 8.4897 8.79408 8.1976 9.17272 8.00961C9.55136 7.82161 9.97576 7.74552 10.3961 7.79025C10.8165 7.83499 11.2154 7.9987 11.546 8.26218" fill="white"/>
<path fill-rule="evenodd" clip-rule="evenodd" d="M10 0C11.3132 -1.95685e-08 12.6136 0.258658 13.8268 0.761205C15.0401 1.26375 16.1425 2.00035 17.0711 2.92893C17.9997 3.85752 18.7362 4.95991 19.2388 6.17317C19.7413 7.38642 20 8.68678 20 10C20 11.3132 19.7413 12.6136 19.2388 13.8268C18.7362 15.0401 17.9997 16.1425 17.0711 17.0711C16.1425 17.9997 15.0401 18.7362 13.8268 19.2388C12.6136 19.7413 11.3132 20 10 20C7.34784 20 4.8043 18.9464 2.92893 17.0711C1.05357 15.1957 0 12.6522 0 10C0 7.34784 1.05357 4.8043 2.92893 2.92893C4.8043 1.05357 7.34784 3.95203e-08 10 0ZM10 2.22222C11.0214 2.22222 12.0328 2.4234 12.9764 2.81427C13.9201 3.20514 14.7775 3.77805 15.4997 4.50028C16.222 5.22251 16.7949 6.07993 17.1857 7.02357C17.5766 7.96722 17.7778 8.97861 17.7778 10C17.7778 11.0214 17.5766 12.0328 17.1857 12.9764C16.7949 13.9201 16.222 14.7775 15.4997 15.4997C14.7775 16.222 13.9201 16.7949 12.9764 17.1857C12.0328 17.5766 11.0214 17.7778 10 17.7778C7.93721 17.7778 5.9589 16.9583 4.50028 15.4997C3.04166 14.0411 2.22222 12.0628 2.22222 10C2.22222 7.93721 3.04166 5.9589 4.50028 4.50028C5.9589 3.04166 7.93721 2.22222 10 2.22222Z" fill="white"/>
</svg>
