<svg width="20" height="20" viewBox="0 0 20 20" fill="none" xmlns="http://www.w3.org/2000/svg">
<path d="M9.99199 1.66669C5.39199 1.66669 1.66699 5.40002 1.66699 10C1.66699 14.6 5.39199 18.3334 9.99199 18.3334C14.6003 18.3334 18.3337 14.6 18.3337 10C18.3337 5.40002 14.6003 1.66669 9.99199 1.66669ZM10.0003 16.6667C6.31699 16.6667 3.33366 13.6834 3.33366 10C3.33366 6.31669 6.31699 3.33335 10.0003 3.33335C13.6837 3.33335 16.667 6.31669 16.667 10C16.667 13.6834 13.6837 16.6667 10.0003 16.6667ZM9.81699 5.83335H9.76699C9.43366 5.83335 9.16699 6.10002 9.16699 6.43335V10.3667C9.16699 10.6584 9.31699 10.9334 9.57533 11.0834L13.0337 13.1584C13.317 13.325 13.6837 13.2417 13.8503 12.9584C13.8922 12.8909 13.92 12.8157 13.9322 12.7372C13.9443 12.6587 13.9406 12.5786 13.9212 12.5017C13.9017 12.4247 13.867 12.3524 13.819 12.2891C13.7711 12.2258 13.7109 12.1729 13.642 12.1334L10.417 10.2167V6.43335C10.417 6.10002 10.1503 5.83335 9.81699 5.83335Z" fill="#545454"/>
</svg>
