<svg width="24" height="25" viewBox="0 0 24 25" fill="none" xmlns="http://www.w3.org/2000/svg">
<path d="M12 19.85C14.0333 17.9833 15.5417 16.2877 16.525 14.763C17.5083 13.2383 18 11.884 18 10.7C18 8.88333 17.421 7.396 16.263 6.238C15.105 5.08 13.684 4.50067 12 4.5C10.3167 4.5 8.896 5.07933 7.738 6.238C6.58 7.39667 6.00067 8.884 6 10.7C6 11.8833 6.49167 13.2377 7.475 14.763C8.45833 16.2883 9.96667 17.984 12 19.85ZM12 21.825C11.7667 21.825 11.5333 21.7833 11.3 21.7C11.0667 21.6167 10.8583 21.4917 10.675 21.325C9.59167 20.325 8.63333 19.35 7.8 18.4C6.96667 17.45 6.271 16.5293 5.713 15.638C5.15433 14.746 4.72933 13.8877 4.438 13.063C4.14667 12.2383 4.00067 11.4507 4 10.7C4 8.2 4.80433 6.20833 6.413 4.725C8.02167 3.24167 9.884 2.5 12 2.5C14.1167 2.5 15.9793 3.24167 17.588 4.725C19.1967 6.20833 20.0007 8.2 20 10.7C20 11.45 19.8543 12.2377 19.563 13.063C19.2717 13.8883 18.8467 14.7467 18.288 15.638C17.7293 16.5293 17.0333 17.45 16.2 18.4C15.3667 19.35 14.4083 20.325 13.325 21.325C13.1417 21.4917 12.9333 21.6167 12.7 21.7C12.4667 21.7833 12.2333 21.825 12 21.825ZM12 12.5C12.55 12.5 13.021 12.3043 13.413 11.913C13.805 11.5217 14.0007 11.0507 14 10.5C14 9.95 13.8043 9.47933 13.413 9.088C13.0217 8.69667 12.5507 8.50067 12 8.5C11.45 8.5 10.9793 8.696 10.588 9.088C10.1967 9.48 10.0007 9.95067 10 10.5C10 11.05 10.196 11.521 10.588 11.913C10.98 12.305 11.4507 12.5007 12 12.5Z" fill="black"/>
</svg>
