<svg width="24" height="25" viewBox="0 0 24 25" fill="none" xmlns="http://www.w3.org/2000/svg">
<path d="M15.7483 3.44702C16.1234 3.07208 16.632 2.86145 17.1623 2.86145C17.6926 2.86145 18.2013 3.07208 18.5763 3.44702L21.0513 5.92202C21.2371 6.10775 21.3845 6.32827 21.4851 6.57097C21.5856 6.81367 21.6374 7.07381 21.6374 7.33652C21.6374 7.59924 21.5856 7.85937 21.4851 8.10208C21.3845 8.34478 21.2371 8.5653 21.0513 8.75102L9.15832 20.644L2.77832 21.72L3.85532 15.34L15.7483 3.44702ZM15.5193 6.50402L17.9943 8.97902L19.6373 7.33602L17.1623 4.86202L15.5193 6.50402ZM16.5793 10.394L14.1053 7.91902L5.72132 16.303L5.21832 19.28L8.19532 18.778L16.5793 10.394Z" fill="#ED5858"/>
</svg>
