<svg width="24" height="25" viewBox="0 0 24 25" fill="none" xmlns="http://www.w3.org/2000/svg">
<path d="M5 22.5C4.45 22.5 3.97933 22.3043 3.588 21.913C3.19667 21.5217 3.00067 21.0507 3 20.5V6.5C3 5.95 3.196 5.47933 3.588 5.088C3.98 4.69667 4.45067 4.50067 5 4.5H6V3.5C6 3.21667 6.096 2.97933 6.288 2.788C6.48 2.59667 6.71733 2.50067 7 2.5C7.28333 2.5 7.521 2.596 7.713 2.788C7.905 2.98 8.00067 3.21733 8 3.5V4.5H16V3.5C16 3.21667 16.096 2.97933 16.288 2.788C16.48 2.59667 16.7173 2.50067 17 2.5C17.2833 2.5 17.521 2.596 17.713 2.788C17.905 2.98 18.0007 3.21733 18 3.5V4.5H19C19.55 4.5 20.021 4.696 20.413 5.088C20.805 5.48 21.0007 5.95067 21 6.5V11.175C21 11.4583 20.904 11.696 20.712 11.888C20.52 12.08 20.2827 12.1757 20 12.175C19.7167 12.175 19.4793 12.079 19.288 11.887C19.0967 11.695 19.0007 11.458 19 11.176V10.5H5V20.5H10.8C11.0833 20.5 11.321 20.596 11.513 20.788C11.705 20.98 11.8007 21.2173 11.8 21.5C11.8 21.7833 11.704 22.021 11.512 22.213C11.32 22.405 11.0827 22.5007 10.8 22.5H5ZM18 23.5C16.6167 23.5 15.4377 23.0123 14.463 22.037C13.4883 21.0617 13.0007 19.8827 13 18.5C13 17.1167 13.4877 15.9377 14.463 14.963C15.4383 13.9883 16.6173 13.5007 18 13.5C19.3833 13.5 20.5627 13.9877 21.538 14.963C22.5133 15.9383 23.0007 17.1173 23 18.5C23 19.8833 22.5123 21.0627 21.537 22.038C20.5617 23.0133 19.3827 23.5007 18 23.5ZM18.5 18.3V16C18.5 15.8667 18.45 15.75 18.35 15.65C18.25 15.55 18.1333 15.5 18 15.5C17.8667 15.5 17.75 15.55 17.65 15.65C17.55 15.75 17.5 15.8667 17.5 16V18.275C17.5 18.4083 17.525 18.5377 17.575 18.663C17.625 18.7883 17.7 18.9007 17.8 19L19.325 20.525C19.425 20.625 19.5417 20.675 19.675 20.675C19.8083 20.675 19.925 20.625 20.025 20.525C20.125 20.425 20.175 20.3083 20.175 20.175C20.175 20.0417 20.125 19.925 20.025 19.825L18.5 18.3Z" fill="black"/>
</svg>
