<svg width="20" height="20" viewBox="0 0 20 20" fill="none" xmlns="http://www.w3.org/2000/svg">
<path d="M15.8337 3.33335H14.167V2.50002C14.167 2.27901 14.0792 2.06704 13.9229 1.91076C13.7666 1.75448 13.5547 1.66669 13.3337 1.66669C13.1126 1.66669 12.9007 1.75448 12.7444 1.91076C12.5881 2.06704 12.5003 2.27901 12.5003 2.50002V3.33335H7.50033V2.50002C7.50033 2.27901 7.41253 2.06704 7.25625 1.91076C7.09997 1.75448 6.88801 1.66669 6.66699 1.66669C6.44598 1.66669 6.23402 1.75448 6.07774 1.91076C5.92146 2.06704 5.83366 2.27901 5.83366 2.50002V3.33335H4.16699C3.50395 3.33335 2.86807 3.59675 2.39923 4.06559C1.93038 4.53443 1.66699 5.17031 1.66699 5.83335V15.8334C1.66699 16.4964 1.93038 17.1323 2.39923 17.6011C2.86807 18.07 3.50395 18.3334 4.16699 18.3334H15.8337C16.4967 18.3334 17.1326 18.07 17.6014 17.6011C18.0703 17.1323 18.3337 16.4964 18.3337 15.8334V5.83335C18.3337 5.17031 18.0703 4.53443 17.6014 4.06559C17.1326 3.59675 16.4967 3.33335 15.8337 3.33335ZM16.667 15.8334C16.667 16.0544 16.5792 16.2663 16.4229 16.4226C16.2666 16.5789 16.0547 16.6667 15.8337 16.6667H4.16699C3.94598 16.6667 3.73402 16.5789 3.57774 16.4226C3.42146 16.2663 3.33366 16.0544 3.33366 15.8334V10H16.667V15.8334ZM16.667 8.33335H3.33366V5.83335C3.33366 5.61234 3.42146 5.40038 3.57774 5.2441C3.73402 5.08782 3.94598 5.00002 4.16699 5.00002H5.83366V5.83335C5.83366 6.05437 5.92146 6.26633 6.07774 6.42261C6.23402 6.57889 6.44598 6.66669 6.66699 6.66669C6.88801 6.66669 7.09997 6.57889 7.25625 6.42261C7.41253 6.26633 7.50033 6.05437 7.50033 5.83335V5.00002H12.5003V5.83335C12.5003 6.05437 12.5881 6.26633 12.7444 6.42261C12.9007 6.57889 13.1126 6.66669 13.3337 6.66669C13.5547 6.66669 13.7666 6.57889 13.9229 6.42261C14.0792 6.26633 14.167 6.05437 14.167 5.83335V5.00002H15.8337C16.0547 5.00002 16.2666 5.08782 16.4229 5.2441C16.5792 5.40038 16.667 5.61234 16.667 5.83335V8.33335Z" fill="#545454"/>
</svg>
